<svg width="151" height="124" viewBox="0 0 151 124" fill="none" xmlns="http://www.w3.org/2000/svg">
<g clip-path="url(#clip0_1_6)">
<path d="M148.051 0.0065918H2.94922C1.32041 0.0065918 0 1.32828 0 2.95866V120.653C0 122.283 1.32041 123.605 2.94922 123.605H148.051C149.68 123.605 151 122.283 151 120.653V2.95866C151 1.32828 149.68 0.0065918 148.051 0.0065918Z" fill="black"/>
<path d="M16.4262 54.7581C15.9219 54.2527 15.3126 54 14.5989 54C13.8851 54 13.2741 54.2551 12.7644 54.7652C12.2619 55.2682 12.0071 55.8799 12.0071 56.5943C12.0071 57.3087 12.2619 57.9209 12.7644 58.4234L20.6931 66.3597L12.7715 74.289C12.2619 74.7991 12.0071 75.4107 12 76.1251C12.0071 76.8395 12.2619 77.4518 12.7644 77.9542C13.2741 78.4573 13.8851 78.7123 14.5918 78.7194C15.3126 78.7194 15.9242 78.4644 16.4339 77.9542L25.2432 69.1293C27.0923 67.2855 27.0923 65.4345 25.2432 63.583L16.4262 54.7581ZM50.9586 74.3031C50.449 73.793 49.8302 73.538 49.1094 73.538V73.5344H32.1019V73.538C31.3811 73.538 30.7688 73.793 30.2598 74.3031C29.7502 74.8132 29.4954 75.4255 29.4954 76.147C29.4954 76.8685 29.7502 77.4878 30.2598 77.9979C30.7694 78.5081 31.3805 78.7631 32.1019 78.7631V78.7596H49.1088V78.7631C49.8296 78.7631 50.4478 78.5081 50.958 77.9979C51.4676 77.4878 51.7224 76.8685 51.7224 76.147C51.7224 75.4255 51.4682 74.8132 50.9586 74.3031Z" fill="white"/>
<rect x="29" y="31" width="23" height="13" fill="black"/>
<rect x="29" y="69" width="23" height="13" fill="black"/>
<path d="M37.9351 35H34.6963L31.5542 28.2646C31.3179 27.749 31.0762 27.3247 30.8291 26.9917C30.582 26.6479 30.3135 26.3794 30.0234 26.186C29.7441 25.9819 29.4326 25.8369 29.0889 25.751C28.7559 25.665 28.3799 25.6221 27.9609 25.6221H26.6074V35H23.7393V13.9399H29.3789C30.6035 13.9399 31.6562 14.0742 32.5371 14.3428C33.418 14.6113 34.1377 14.9873 34.6963 15.4707C35.2656 15.9541 35.6792 16.5396 35.937 17.2271C36.2056 17.9038 36.3398 18.6558 36.3398 19.4829C36.3398 20.1382 36.2432 20.7612 36.0498 21.3521C35.8564 21.9321 35.5664 22.4639 35.1797 22.9473C34.8037 23.4199 34.3311 23.8335 33.7617 24.188C33.2031 24.5317 32.5586 24.7896 31.8281 24.9614C32.4189 25.1655 32.9185 25.5254 33.3267 26.041C33.7456 26.5459 34.1699 27.2227 34.5996 28.0713L37.9351 35ZM33.3428 19.7246C33.3428 18.5967 32.9883 17.7534 32.2793 17.1948C31.5811 16.6362 30.5928 16.3569 29.3145 16.3569H26.6074V23.3179H28.9277C29.6045 23.3179 30.2114 23.2427 30.7485 23.0923C31.2964 22.9312 31.7583 22.7002 32.1343 22.3994C32.521 22.0879 32.8164 21.7119 33.0205 21.2715C33.2354 20.8203 33.3428 20.3047 33.3428 19.7246ZM55.3857 26.0571C55.3857 26.4546 55.3804 26.7876 55.3696 27.0562C55.3589 27.3247 55.3428 27.5771 55.3213 27.8135H43.9614C43.9614 29.4678 44.4233 30.7407 45.3472 31.6323C46.271 32.5132 47.603 32.9536 49.3433 32.9536C49.8159 32.9536 50.2886 32.9375 50.7612 32.9053C51.2339 32.8623 51.6904 32.8086 52.1309 32.7441C52.5713 32.6797 52.9902 32.6099 53.3877 32.5347C53.7959 32.4487 54.1719 32.3574 54.5156 32.2607V34.5649C53.7529 34.7798 52.8882 34.9517 51.9214 35.0806C50.9653 35.2202 49.9717 35.29 48.9404 35.29C47.5547 35.29 46.3623 35.1021 45.3633 34.7261C44.3643 34.3501 43.5425 33.8076 42.8979 33.0986C42.2642 32.3789 41.7915 31.5034 41.48 30.4722C41.1792 29.4302 41.0288 28.2539 41.0288 26.9434C41.0288 25.8047 41.1899 24.7305 41.5122 23.7207C41.8452 22.7002 42.3232 21.8086 42.9463 21.0459C43.5801 20.2725 44.3535 19.6602 45.2666 19.209C46.1797 18.7578 47.2163 18.5322 48.3765 18.5322C49.5044 18.5322 50.5034 18.7095 51.3735 19.064C52.2437 19.4185 52.9741 19.9233 53.5649 20.5786C54.1665 21.2231 54.6177 22.0127 54.9185 22.9473C55.23 23.8711 55.3857 24.9077 55.3857 26.0571ZM52.4692 25.6543C52.5015 24.9346 52.4316 24.2793 52.2598 23.6885C52.0879 23.0869 51.8193 22.5713 51.4541 22.1416C51.0996 21.7119 50.6538 21.3789 50.1167 21.1426C49.5796 20.8955 48.9565 20.772 48.2476 20.772C47.6353 20.772 47.0767 20.8901 46.5718 21.1265C46.0669 21.3628 45.6318 21.6958 45.2666 22.1255C44.9014 22.5552 44.606 23.0708 44.3804 23.6724C44.1548 24.2739 44.0151 24.9346 43.9614 25.6543H52.4692ZM74.0449 16.3892H67.8091V35H64.9087V16.3892H58.6729V13.9399H74.0449V16.3892ZM91.6729 26.0571C91.6729 26.4546 91.6675 26.7876 91.6567 27.0562C91.646 27.3247 91.6299 27.5771 91.6084 27.8135H80.2485C80.2485 29.4678 80.7104 30.7407 81.6343 31.6323C82.5581 32.5132 83.8901 32.9536 85.6304 32.9536C86.103 32.9536 86.5757 32.9375 87.0483 32.9053C87.521 32.8623 87.9775 32.8086 88.418 32.7441C88.8584 32.6797 89.2773 32.6099 89.6748 32.5347C90.083 32.4487 90.459 32.3574 90.8027 32.2607V34.5649C90.04 34.7798 89.1753 34.9517 88.2085 35.0806C87.2524 35.2202 86.2588 35.29 85.2275 35.29C83.8418 35.29 82.6494 35.1021 81.6504 34.7261C80.6514 34.3501 79.8296 33.8076 79.1851 33.0986C78.5513 32.3789 78.0786 31.5034 77.7671 30.4722C77.4663 29.4302 77.3159 28.2539 77.3159 26.9434C77.3159 25.8047 77.4771 24.7305 77.7993 23.7207C78.1323 22.7002 78.6104 21.8086 79.2334 21.0459C79.8672 20.2725 80.6406 19.6602 81.5537 19.209C82.4668 18.7578 83.5034 18.5322 84.6636 18.5322C85.7915 18.5322 86.7905 18.7095 87.6606 19.064C88.5308 19.4185 89.2612 19.9233 89.8521 20.5786C90.4536 21.2231 90.9048 22.0127 91.2056 22.9473C91.5171 23.8711 91.6729 24.9077 91.6729 26.0571ZM88.7563 25.6543C88.7886 24.9346 88.7188 24.2793 88.5469 23.6885C88.375 23.0869 88.1064 22.5713 87.7412 22.1416C87.3867 21.7119 86.9409 21.3789 86.4038 21.1426C85.8667 20.8955 85.2437 20.772 84.5347 20.772C83.9224 20.772 83.3638 20.8901 82.8589 21.1265C82.354 21.3628 81.9189 21.6958 81.5537 22.1255C81.1885 22.5552 80.8931 23.0708 80.6675 23.6724C80.4419 24.2739 80.3022 24.9346 80.2485 25.6543H88.7563ZM96.813 18.8223H99.375L99.4556 21.8032C100.412 20.6538 101.352 19.8213 102.275 19.3057C103.21 18.79 104.15 18.5322 105.095 18.5322C106.771 18.5322 108.039 19.0747 108.898 20.1597C109.768 21.2446 110.171 22.856 110.106 24.9937H107.271C107.303 23.5757 107.093 22.5498 106.642 21.916C106.202 21.2715 105.552 20.9492 104.692 20.9492C104.316 20.9492 103.935 21.019 103.548 21.1587C103.172 21.2876 102.78 21.5024 102.372 21.8032C101.975 22.0933 101.55 22.4692 101.099 22.9312C100.648 23.3931 100.165 23.9517 99.6489 24.6069V35H96.813V18.8223ZM125.833 35V23.3823C125.833 22.8774 125.812 22.4639 125.769 22.1416C125.736 21.8193 125.677 21.5669 125.591 21.3843C125.516 21.1909 125.414 21.0566 125.285 20.9814C125.167 20.9062 125.017 20.8687 124.834 20.8687C124.619 20.8687 124.42 20.9331 124.238 21.062C124.055 21.1909 123.856 21.4004 123.642 21.6904C123.438 21.9805 123.207 22.3672 122.949 22.8506C122.702 23.3232 122.406 23.9087 122.062 24.6069V35H119.5V23.6885C119.5 23.0977 119.479 22.6196 119.436 22.2544C119.404 21.8892 119.345 21.6045 119.259 21.4004C119.184 21.1963 119.082 21.0566 118.953 20.9814C118.824 20.9062 118.668 20.8687 118.485 20.8687C118.292 20.8687 118.109 20.9224 117.938 21.0298C117.766 21.1372 117.572 21.3306 117.357 21.6099C117.153 21.8892 116.922 22.2705 116.665 22.7539C116.407 23.2373 116.101 23.855 115.746 24.6069V35H113.168V18.8223H115.311L115.44 21.8999C115.719 21.2876 115.988 20.7666 116.246 20.3369C116.514 19.9072 116.788 19.5635 117.067 19.3057C117.347 19.0371 117.642 18.8438 117.954 18.7256C118.276 18.5967 118.63 18.5322 119.017 18.5322C119.887 18.5322 120.548 18.8169 120.999 19.3862C121.45 19.9556 121.676 20.8364 121.676 22.0288C121.934 21.4702 122.186 20.9761 122.433 20.5464C122.68 20.106 122.943 19.7407 123.223 19.4507C123.513 19.1499 123.83 18.9243 124.173 18.7739C124.517 18.6128 124.915 18.5322 125.366 18.5322C127.396 18.5322 128.411 20.0952 128.411 23.2212V35H125.833Z" fill="white"/>
<rect x="34" y="74" width="15" height="3" rx="1.5" fill="white"/>
</g>
<defs>
<clipPath id="clip0_1_6">
<rect width="151" height="124" rx="10" fill="white"/>
</clipPath>
</defs>
</svg>
